<svg xmlns="http://www.w3.org/2000/svg" width="476.834" height="568.199" viewBox="0 0 476.834 568.199"><g transform="translate(-75.62 -23.434)"><path d="M76.13,84.78,195.69,26.55,314.36,86.69" fill="none" stroke="#fff" stroke-miterlimit="10" stroke-width="2"/><path d="M433.16,145.38,314.36,86.69,432.62,24.56,552,85.45" fill="none" stroke="#fff" stroke-miterlimit="10" stroke-width="2"/><path d="M330.61,336.6,432.6,387.04,314.36,446.62,219.47,399.6l-23.78-11.78.25-242.33,118.42-58.8V328.56Z" fill="none" stroke="#fff" stroke-miterlimit="10" stroke-width="2"/><line x1="0.56" y2="243.49" transform="translate(432.6 144.7)" fill="none" stroke="#fff" stroke-miterlimit="10" stroke-width="2"/><path d="M551.45,86.2l-.61,241.48L432.6,387.04l.56-241.66Z" fill="none" stroke="#fff" stroke-miterlimit="10" stroke-width="2"/><path d="M432.88,313.02" fill="none" stroke="#fff" stroke-miterlimit="10" stroke-width="2"/><path d="M432.32,554.67" fill="none" stroke="#fff" stroke-miterlimit="10" stroke-width="2"/><path d="M195.94,145.49,76.62,85.4V467.9L314.77,590.5l117.55-64.97.28-138.49L314.36,446.62" fill="none" stroke="#fff" stroke-miterlimit="10" stroke-width="2"/><line x1="0.41" y1="143.88" transform="translate(314.36 446.62)" fill="none" stroke="#fff" stroke-miterlimit="10" stroke-width="2"/><line x1="118.24" y2="59.58" transform="translate(196.12 328.56)" fill="none" stroke="#fff" stroke-miterlimit="10" stroke-width="2"/></g></svg>