<?xml version="1.0" encoding="utf-8"?>
<!-- Generator: Adobe Illustrator 22.0.0, SVG Export Plug-In . SVG Version: 6.00 Build 0)  -->
<svg version="1.1" id="Layer_1" xmlns="http://www.w3.org/2000/svg" xmlns:xlink="http://www.w3.org/1999/xlink" x="0px" y="0px"
	 viewBox="0 0 800 800" style="enable-background:new 0 0 800 800;" xml:space="preserve">
<style type="text/css">
	.st0{fill:none;stroke:#4B334C;stroke-width:2;stroke-miterlimit:10;}
	.st1{fill:#755671;stroke:#4B334C;stroke-width:2;stroke-miterlimit:10;}
	.st2{fill:#755671;}
	.st3{fill:none;stroke:#4B334C;stroke-width:2;stroke-miterlimit:10;stroke-dasharray:12;}
	.st4{fill:none;stroke:#4B334C;stroke-miterlimit:10;}
	.st5{fill:#4B334C;stroke:#4B334C;stroke-width:2;stroke-miterlimit:10;}
</style>
<path class="st0" d="M363.7,98.8c-68.6,10.6-137.1,21.1-205.7,31.7c81.2,33.9,182.4,68.9,301.2,94.4
	c117.5,25.2,223.1,34.9,310.4,37.4c-48-37.9-96.1-75.9-144.1-113.8c-38.8,0.4-87.1-2.5-141.4-13.4
	C436.8,125.5,396.4,112.1,363.7,98.8z"/>
<path class="st0" d="M363.7,98.8c39.3-42.1,97.8-60.1,152.8-46.7c77.3,18.9,106.4,89.7,109,96.3"/>
<path class="st1" d="M155.7,130.7c-1.9,4,116.3,90.9,284.4,128.1c172,38.1,331.5,9.7,331.5,5.4c0-1.3-14.7-1.7-42.4-3.6
	c0,0-137-9.2-287.2-39.8c-64.4-13.1-111.2-28.1-121.4-31.1C214.8,157.9,156.9,128,155.7,130.7z"/>
<path class="st2" d="M168,673c52.4-6,111.5-10.1,176-10c62.9,0.1,120.6,4.1,172,10c-27.3,5.3-54.7,10.7-82,16c-29,2-58,4-87,6
	c-27.7-1.3-55.3-2.7-83-4C232,685,200,679,168,673z"/>
<path class="st3" d="M390,246c-74,142.3-148,284.7-222,427c42.8,11,99.3,21.2,166,22c74.1,0.8,136.4-10.3,182-22
	c1.3-133.7,2.7-267.3,4-401"/>
<line class="st0" x1="394" y1="110.3" x2="281.2" y2="176.5"/>
<line class="st0" x1="471.9" y1="132.5" x2="451.6" y2="223.2"/>
<path class="st0" d="M569.9,146.8c11,33.7,22.1,67.5,33.1,101.2"/>
<path class="st4" d="M539.2,78.9c8.5,3.5,22,10.4,35,23.2c11.2,11.1,17.8,22.5,21.5,30.4"/>
<path class="st0" d="M368,449.2l-11.3,79.2l58.4,8.4l7.9-55.4c-7.1-9.1-14.2-18.2-21.4-27.3C390.4,452.4,379.2,450.8,368,449.2z"/>
<polyline class="st5" points="401.6,454 398.2,477.8 422,481.2 "/>
</svg>
