<svg width="324" height="281" viewBox="0 0 324 281" fill="none" xmlns="http://www.w3.org/2000/svg">
<g opacity="0.32">
<path d="M74.8439 59.5173H1.21191V-14.1355H74.8439V59.5173Z" stroke="white" stroke-dasharray="2 5"/>
<path d="M222.109 59.5173H148.479V-14.1355H222.109V59.5173Z" stroke="white" stroke-dasharray="2 5"/>
<path d="M148.47 133.17H74.8438V59.5173H148.47V133.17Z" stroke="white" stroke-dasharray="2 5"/>
<path d="M222.109 133.17H148.479V59.5173H222.109V133.17Z" stroke="white" stroke-dasharray="2 5"/>
<path d="M295.74 133.17H222.11V59.5173H295.74V133.17Z" stroke="white" stroke-dasharray="2 5"/>
<path d="M295.74 59.5173H222.11V-14.1355H295.74V59.5173Z" stroke="white" stroke-dasharray="2 5"/>
<path d="M369.37 59.5173H295.74V-14.1355H369.37V59.5173Z" stroke="white" stroke-dasharray="2 5"/>
<path d="M148.47 59.5173H74.8438V-14.1355H148.47V59.5173Z" stroke="white" stroke-dasharray="2 5"/>
<path d="M369.37 206.823H295.74V133.17H369.37V206.823Z" stroke="white" stroke-dasharray="2 5"/>
<path d="M369.37 280.476H295.74V206.823H369.37V280.476Z" stroke="white" stroke-dasharray="2 5"/>
<path d="M369.37 133.17H295.74V59.5173H369.37V133.17Z" stroke="white" stroke-dasharray="2 5"/>
</g>
</svg>
