<svg width="396" height="471" viewBox="0 0 396 471" fill="none" xmlns="http://www.w3.org/2000/svg">
  <path d="M3 51.3537L100.986 3.63086L198.242 52.919" stroke="white" stroke-opacity="0.4"
    stroke-width="2" stroke-miterlimit="10" />
  <path d="M295.604 101.019L198.242 52.9191L295.162 2L393 51.9028" stroke="white"
    stroke-opacity="0.4" stroke-width="2" stroke-miterlimit="10" />
  <path
    d="M211.559 257.735L295.145 299.073L198.242 347.902L120.474 309.367L100.985 299.712L101.19 101.109L198.242 52.9192V251.145L211.559 257.735Z"
    fill="white" fill-opacity="0.1" stroke="white" stroke-opacity="0.4" stroke-width="2"
    stroke-miterlimit="10" />
  <path d="M295.604 100.462L295.146 300.016" stroke="white" stroke-opacity="0.4" stroke-width="2"
    stroke-miterlimit="10" />
  <g filter="url(#filter0_d_42_59)">
    <path d="M392.549 52.5176L392.049 250.424L295.146 299.073L295.604 101.019L392.549 52.5176Z"
      fill="white" fill-opacity="0.1" shape-rendering="crispEdges" />
    <path d="M392.549 52.5176L392.049 250.424L295.146 299.073L295.604 101.019L392.549 52.5176Z"
      stroke="white" stroke-opacity="0.4" stroke-width="2" stroke-miterlimit="10"
      shape-rendering="crispEdges" />
  </g>
  <g filter="url(#filter1_d_42_59)">
    <path
      d="M101.19 101.109L3.40137 51.8618V365.342L198.578 465.82L294.916 412.573L295.145 299.073L198.242 347.902"
      stroke="white" stroke-opacity="0.4" stroke-width="2" stroke-miterlimit="10"
      shape-rendering="crispEdges" />
  </g>
  <path d="M198.578 465.82L198.242 347.902" stroke="white" stroke-opacity="0.4" stroke-width="2"
    stroke-miterlimit="10" />
  <path d="M198.242 251.145L101.338 299.974" stroke="white" stroke-opacity="0.4" stroke-width="2"
    stroke-miterlimit="10" />
  <defs>
    <filter id="filter0_d_42_59" x="292.142" y="50.897" width="103.412" height="253.799"
      filterUnits="userSpaceOnUse" color-interpolation-filters="sRGB">
      <feFlood flood-opacity="0" result="BackgroundImageFix" />
      <feColorMatrix in="SourceAlpha" type="matrix"
        values="0 0 0 0 0 0 0 0 0 0 0 0 0 0 0 0 0 0 127 0" result="hardAlpha" />
      <feOffset dy="2" />
      <feGaussianBlur stdDeviation="1" />
      <feComposite in2="hardAlpha" operator="out" />
      <feColorMatrix type="matrix" values="0 0 0 0 0 0 0 0 0 0 0 0 0 0 0 0 0 0 0.15 0" />
      <feBlend mode="normal" in2="BackgroundImageFix" result="effect1_dropShadow_42_59" />
      <feBlend mode="normal" in="SourceGraphic" in2="effect1_dropShadow_42_59" result="shape" />
    </filter>
    <filter id="filter1_d_42_59" x="0.401367" y="50.2385" width="297.747" height="420.715"
      filterUnits="userSpaceOnUse" color-interpolation-filters="sRGB">
      <feFlood flood-opacity="0" result="BackgroundImageFix" />
      <feColorMatrix in="SourceAlpha" type="matrix"
        values="0 0 0 0 0 0 0 0 0 0 0 0 0 0 0 0 0 0 127 0" result="hardAlpha" />
      <feOffset dy="2" />
      <feGaussianBlur stdDeviation="1" />
      <feComposite in2="hardAlpha" operator="out" />
      <feColorMatrix type="matrix" values="0 0 0 0 0 0 0 0 0 0 0 0 0 0 0 0 0 0 0.25 0" />
      <feBlend mode="normal" in2="BackgroundImageFix" result="effect1_dropShadow_42_59" />
      <feBlend mode="normal" in="SourceGraphic" in2="effect1_dropShadow_42_59" result="shape" />
    </filter>
  </defs>
</svg>
  