<svg width="847" height="1147" viewBox="0 0 847 1147" fill="none" xmlns="http://www.w3.org/2000/svg">
  <path
    d="M438.023 52.0625C369.423 62.6625 300.923 73.1625 232.323 83.7625C313.523 117.662 414.723 152.662 533.523 178.162C651.023 203.362 756.623 213.062 843.923 215.562C795.923 177.662 747.823 139.662 699.823 101.762C661.023 102.162 612.723 99.2625 558.423 88.3625C511.123 78.7625 470.723 65.3625 438.023 52.0625Z"
    stroke="white" stroke-width="2" stroke-miterlimit="10" />
  <path
    d="M438.023 52.0626C477.323 9.96255 535.823 -8.03745 590.823 5.36255C668.123 24.2625 697.223 95.0625 699.823 101.663"
    stroke="white" stroke-width="2" stroke-miterlimit="10" />
  <path
    d="M230.023 83.9624C228.123 87.9624 346.323 174.862 514.423 212.062C686.423 250.162 845.923 221.762 845.923 217.462C845.923 216.162 831.223 215.762 803.523 213.862C803.523 213.862 666.523 204.662 516.323 174.062C451.923 160.962 405.123 145.962 394.923 142.962C289.123 111.162 231.223 81.2624 230.023 83.9624Z"
    fill="#111C29" stroke="white" stroke-width="2" stroke-miterlimit="10" />
  <path
    d="M464.692 199.263C390.902 341.233 75.2898 931.53 1.5 1073.5M607.5 1146.5C608.796 1013.11 593.026 358.593 594.323 225.202"
    stroke="white" stroke-width="2" stroke-miterlimit="10" stroke-dasharray="12 12" />
  <path d="M468.323 63.5625L355.523 129.762" stroke="white" stroke-width="2" stroke-miterlimit="10" />
  <path d="M546.223 85.7627L525.923 176.463" stroke="white" stroke-width="2" stroke-miterlimit="10" />
  <path d="M644.223 100.062C655.223 133.763 666.323 167.562 677.323 201.262" stroke="white"
    stroke-width="2" stroke-miterlimit="10" />
  <path
    d="M613.523 32.1621C622.023 35.6621 635.523 42.5621 648.523 55.3621C659.723 66.4621 666.323 77.8621 670.023 85.7621"
    stroke="white" stroke-miterlimit="10" />
  <path
    d="M442.323 402.462L431.023 481.662L489.423 490.062L497.323 434.662C490.223 425.562 483.123 416.462 475.923 407.362C464.723 405.662 453.523 404.062 442.323 402.462Z"
    stroke="white" stroke-width="2" stroke-miterlimit="10" />
  <path d="M475.923 407.263L472.523 431.063L496.323 434.463" fill="white" />
  <path d="M475.923 407.263L472.523 431.063L496.323 434.463" stroke="white" stroke-width="2"
    stroke-miterlimit="10" />
</svg>